<?xml version="1.0" standalone="no"?><!DOCTYPE svg PUBLIC "-//W3C//DTD SVG 1.1//EN" "http://www.w3.org/Graphics/SVG/1.1/DTD/svg11.dtd"><svg class="icon" height="512" viewBox="0 0 1024 1024" version="1.1" xmlns="http://www.w3.org/2000/svg"><path d="M512 903.776525 512 903.776525C728.322739 903.776525 903.712819 728.386445 903.712819 512 903.712819 295.613555 728.322739 120.223475 512 120.223475 295.677261 120.223475 120.287181 295.613555 120.287181 512 120.287181 728.386445 295.677261 903.776525 512 903.776525L512 903.776525ZM512 960C264.576435 960 64 759.423565 64 512 64 264.576435 264.576435 64 512 64 759.423565 64 960 264.576435 960 512 960 759.423565 759.423565 960 512 960ZM514.297434 473.137894 395.465274 354.440224C384.439789 343.427219 366.7168 343.523661 355.726048 354.501978 344.658669 365.556832 344.707616 383.252013 355.664224 394.196224L474.49639 512.893894 355.664224 631.591565C344.638739 642.604576 344.73529 660.307501 355.726048 671.285818 366.793427 682.340672 384.508659 682.291782 395.465274 671.347565L514.297434 552.649894 633.1296 671.347565C644.155085 682.360576 661.878067 682.264134 672.868826 671.285818 683.936205 660.230963 683.887258 642.535782 672.93065 631.591565L554.098483 512.893894 672.93065 394.196224C683.956128 383.183219 683.859578 365.480294 672.868826 354.501978 661.801446 343.447123 644.086214 343.496013 633.1296 354.440224L514.297434 473.137894Z" /></svg>